<?xml version="1.0" encoding="UTF-8" standalone="yes"?>
<!DOCTYPE svg PUBLIC "-//W3C//DTD SVG 1.1//EN" "http://www.w3.org/Graphics/SVG/1.1/DTD/svg11.dtd">

<svg xmlns="http://www.w3.org/2000/svg" xmlns:xlink="http://www.w3.org/1999/xlink" width="200" height="200">

<circle cx="100" cy="100" r="100" fill="#6EC4E8"/>

<path id="3" fill="#000000" d="M65,100 m -5.38 55.69 c -15.21 0 -23.61 -3.8 -30.61 -7.97 l 8.39 -16.41 c 4.39 3.2 11.79 6.99 20.81 6.99 c 12.18 0 20 -7.2 20 -16.19 c 0 -12.19 -9.4 -16.42 -20.22 -16.42 l -10.99 0 l 0 -17.6 l 11.21 0 c 10.38 0 16.79 -5.18 16.79 -13.38 c 0 -6.8 -5.01 -13 -16.22 -13 c -9.78 0 -16.17 4.57 -19.59 7.58 l -7.78 -15.58 c 8.98 -6.01 18.79 -9.4 32.17 -9.4 c 21.62 0 33.81 12.81 33.81 26.99 c 0 11.01 -5.8 19.61 -17.01 23.8 l 0 0.41 c 11.62 2.2 20.61 11.18 20.61 25.98 c 0.01 18.61 -16.8 34.2 -41.37 34.2"/>
<path id="b" fill="#000000" d="M120,100 m 17.53 -1.93 c 0 -7.21 -3.25 -15.38 -11.09 -15.38 c -3.75 0 -6.04 2.04 -8.04 4.95 l 0 -15.57 l -7.87 0 l 0 41.25 l 7.6 0 v 0 -1.56 c 1.48 1.4 4.12 2.29 6.35 2.29 c 9.52 0 13.05 -9.31 13.05 -15.99 m -8.22 1.09 c 0 4.07 -1.11 9.32 -6.14 9.32 c -3.56 0 -4.77 -1.86 -4.77 -3.88 l 0 -9.77 c 0 -1.72 0.13 0.13 1.49 -3.86 c 0.87 -0.83 2.06 -1.51 3.64 -1.51 c 4.94 0 5.78 5.7 5.78 9.71"/>
<path id="i" fill="#000000" d="M140,100 m 12.56 -24.35 c 0 -2.43 -1.68 -4.13 -4.36 -4.13 c -2.67 0 -4.4 1.71 -4.4 4.13 c 0 2.39 1.73 4.12 4.4 4.12 c 2.68 0 4.36 -1.73 4.36 -4.12 m -8.29 37.67 l 7.87 0 l 0 -29.77 l -7.87 0 l 0 29.77"/>
<path id="s" fill="#000000" d="M160,100 m 20 4.41 c 0 -4.51 -2.65 -6.97 -6.62 -8.48 l -3.64 -1.33 c -1.88 -0.68 -3.14 -1.41 -3.14 -2.94 c 0 -1.77 1.51 -2.83 4.13 -2.83 c 1.89 0 4.29 0.64 5.99 1.78 l 2.4 -5.77 c -1.51 -0.8 -4.29 -1.96 -8.01 -1.96 c -6.97 0 -11.73 4.39 -11.73 10.05 c 0 3.52 1.77 6.23 5.98 7.85 l 3.52 1.33 c 1.55 0.61 3.81 1.22 3.81 3.31 c 0 2.33 -2.53 2.98 -4.59 2.98 c -2.36 0 -5.04 -0.89 -6.95 -2.22 l -2.41 5.87 c 1.68 0.99 5.01 2.26 8.73 2.26 c 7.81 0 12.51 -4.09 12.51 -9.91"/>

</svg>
