<?xml version="1.0" encoding="UTF-8" standalone="yes"?>
<!DOCTYPE svg PUBLIC "-//W3C//DTD SVG 1.1//EN" "http://www.w3.org/Graphics/SVG/1.1/DTD/svg11.dtd">

<svg xmlns="http://www.w3.org/2000/svg" xmlns:xlink="http://www.w3.org/1999/xlink" width="200" height="200">

<circle cx="100" cy="100" r="100" fill="#C9910D"/>

<path id="1" fill="#000000" d="M70,100 m -8.74 52.1 l 0 -81.9 c -3.56 2.8 -14.01 8.25 -17.86 10.19 l -5.46 2.77 l -7.06 -15.92 l 6.34 -2.95 c 12.1 -5.77 23.3 -12.69 28.02 -16.39 l 18.17 0 l 0 104.2 l -22.15 0"/>
<path id="0" fill="#000000" d="M130,100 m 39 0.38 c 0 -24.47 -5.96 -55.38 -36.25 -55.38 c -30.28 0 -36.85 30.91 -36.85 55.38 c 0 24.47 5.99 55.38 36.26 55.38 c 30.32 0 36.83 -30.91 36.83 -55.38 m -21.73 0 c 0 10.52 -0.55 37.65 -14.81 37.65 c -14.18 0 -14.93 -26.97 -14.93 -37.65 c 0 -10.84 0.43 -37.51 14.93 -37.51 c 14.36 0 14.81 26.4 14.81 37.51"/>

</svg>
