<?xml version="1.0" encoding="UTF-8" standalone="yes"?>
<!DOCTYPE svg PUBLIC "-//W3C//DTD SVG 1.1//EN" "http://www.w3.org/Graphics/SVG/1.1/DTD/svg11.dtd">

<svg xmlns="http://www.w3.org/2000/svg" xmlns:xlink="http://www.w3.org/1999/xlink" width="200" height="200">

<circle cx="100" cy="100" r="100" fill="#6ECA97"/>

<path id="7" fill="#000000" d="M65,100 m 38.4 -33.58 l 0 -17.18 l -73.8 0 l 0 17.63 l 51.23 0 l -25.68 47.81 c -9.27 17.22 -13 26.12 -13 40.08l 24.07 0 c 0 -16.6 14 -48.12 37.18 -88.34"/>
<path id="b" fill="#000000" d="M115,120 m 17.53 -1.93 c 0 -7.21 -3.25 -15.38 -11.09 -15.38 c -3.75 0 -6.04 2.04 -8.04 4.95 l 0 -15.57 l -7.87 0 l 0 41.25 l 7.6 0 v 0 -1.56 c 1.48 1.4 4.12 2.29 6.35 2.29 c 9.52 0 13.05 -9.31 13.05 -15.99 m -8.22 1.09 c 0 4.07 -1.11 9.32 -6.14 9.32 c -3.56 0 -4.77 -1.86 -4.77 -3.88 l 0 -9.77 c 0 -1.72 0.13 0.13 1.49 -3.86 c 0.87 -0.83 2.06 -1.51 3.64 -1.51 c 4.94 0 5.78 5.7 5.78 9.71"/>
<path id="i" fill="#000000" d="M135,120 m 12.56 -24.35 c 0 -2.43 -1.68 -4.13 -4.36 -4.13 c -2.67 0 -4.4 1.71 -4.4 4.13 c 0 2.39 1.73 4.12 4.4 4.12 c 2.68 0 4.36 -1.73 4.36 -4.12 m -8.29 37.67 l 7.87 0 l 0 -29.77 l -7.87 0 l 0 29.77"/>
<path id="s" fill="#000000" d="M155,120 m 20 4.41 c 0 -4.51 -2.65 -6.97 -6.62 -8.48 l -3.64 -1.33 c -1.88 -0.68 -3.14 -1.41 -3.14 -2.94 c 0 -1.77 1.51 -2.83 4.13 -2.83 c 1.89 0 4.29 0.64 5.99 1.78 l 2.4 -5.77 c -1.51 -0.8 -4.29 -1.96 -8.01 -1.96 c -6.97 0 -11.73 4.39 -11.73 10.05 c 0 3.52 1.77 6.23 5.98 7.85 l 3.52 1.33 c 1.55 0.61 3.81 1.22 3.81 3.31 c 0 2.33 -2.53 2.98 -4.59 2.98 c -2.36 0 -5.04 -0.89 -6.95 -2.22 l -2.41 5.87 c 1.68 0.99 5.01 2.26 8.73 2.26 c 7.81 0 12.51 -4.09 12.51 -9.91"/>

</svg>
