<?xml version="1.0" encoding="UTF-8" standalone="yes"?>
<!DOCTYPE svg PUBLIC "-//W3C//DTD SVG 1.1//EN" "http://www.w3.org/Graphics/SVG/1.1/DTD/svg11.dtd">

<svg xmlns="http://www.w3.org/2000/svg" xmlns:xlink="http://www.w3.org/1999/xlink" width="200" height="200">

<circle cx="100" cy="100" r="100" fill="#6EC4E8"/>

<path id="1" fill="#000000" d="M70,100 m -8.74 52.1 l 0 -81.9 c -3.56 2.8 -14.01 8.25 -17.86 10.19 l -5.46 2.77 l -7.06 -15.92 l 6.34 -2.95 c 12.1 -5.77 23.3 -12.69 28.02 -16.39 l 18.17 0 l 0 104.2 l -22.15 0"/>
<path id="3" fill="#000000" d="M130,100 m -5.38 55.69 c -15.21 0 -23.61 -3.8 -30.61 -7.97 l 8.39 -16.41 c 4.39 3.2 11.79 6.99 20.81 6.99 c 12.18 0 20 -7.2 20 -16.19 c 0 -12.19 -9.4 -16.42 -20.22 -16.42 l -10.99 0 l 0 -17.6 l 11.21 0 c 10.38 0 16.79 -5.18 16.79 -13.38 c 0 -6.8 -5.01 -13 -16.22 -13 c -9.78 0 -16.17 4.57 -19.59 7.58 l -7.78 -15.58 c 8.98 -6.01 18.79 -9.4 32.17 -9.4 c 21.62 0 33.81 12.81 33.81 26.99 c 0 11.01 -5.8 19.61 -17.01 23.8 l 0 0.41 c 11.62 2.2 20.61 11.18 20.61 25.98 c 0.01 18.61 -16.8 34.2 -41.37 34.2"/>

</svg>
