<?xml version="1.0" encoding="UTF-8" standalone="yes"?>
<!DOCTYPE svg PUBLIC "-//W3C//DTD SVG 1.1//EN" "http://www.w3.org/Graphics/SVG/1.1/DTD/svg11.dtd">

<svg xmlns="http://www.w3.org/2000/svg" xmlns:xlink="http://www.w3.org/1999/xlink" width="200" height="200">

<circle cx="100" cy="100" r="100" fill="#B6BD00"/>

<path id="9" fill="#000000" d="M100,100 m -37.39 -18.34 c 0 19.88 14.13 31.45 31.44 31.45 c 11.2 0 18.12 -4.07 21.71 -7.18 c -1.35 21.31 -12.46 32.01 -27 32.01 c -5.97 0 -11.4 -1.35 -14.3 -2.55 l -3.31 18.06 c 4.4 1.02 9.8 1.82 15.83 1.82 c 33.45 0 50.41 -25.3 50.41 -62.17 c 0 -28.11 -10.2 -48.13 -38.87 -48.13 c -21.77 0 -35.9 15.5 -35.9 36.7 m 21.19 -2.23 c 0 -9.2 5.29 -17.76 15.45 -17.76 c 10.51 0 16.36 9.79 16.36 19.85 c 0 3.2 0 7.24 -1.2 9.03 c -2.09 3.33 -8.71 7.11 -15.16 7.11 c -10.19 0 -15.45 -8.28 -15.45 -18.22"/>

</svg>
