<?xml version="1.0" encoding="UTF-8" standalone="yes"?>
<!DOCTYPE svg PUBLIC "-//W3C//DTD SVG 1.1//EN" "http://www.w3.org/Graphics/SVG/1.1/DTD/svg11.dtd">

<svg xmlns="http://www.w3.org/2000/svg" xmlns:xlink="http://www.w3.org/1999/xlink" width="200" height="200">

<circle cx="100" cy="100" r="100" fill="#E19BDF"/>

<path id="8" fill="#000000" d="M100,100 m 35.1 21.52 c 0 -13.25 -8.13 -21.28 -17.43 -25.66 c 9.43 -5.75 14.31 -13.03 14.31 -22.44 c 0 -17.32 -14.73 -26.04 -32.44 -26.04 c -17.29 0 -32.43 11.6 -32.43 28.3 c 0 10.42 5.43 16.56 14.13 21.99 c -9.71 5 -17.27 12.89 -17.27 26.29 c 0 15.3 12.69 28.71 35.13 28.71 c 20.71 0 36 -11.98 36 -31.15 m -22.41 -46.83 c 0 6.31 -5.71 12.12 -11 14.57 c -6.42 -2.71 -14.71 -7.15 -14.71 -15.42 c 0 -6.99 4.99 -11.86 12.85 -11.86 c 8.28 0 12.86 5.69 12.86 12.71 m 1.56 48.42 c 0 8 -5.29 14.73 -14.86 14.73 c -9.72 0 -15.13 -7.89 -15.13 -16.16 c 0 -7.83 6.57 -14.4 13.14 -16.99 c 8.57 4.29 16.86 9.28 16.86 18.43"/>

</svg>
