<?xml version="1.0" encoding="UTF-8" standalone="yes"?>
<!DOCTYPE svg PUBLIC "-//W3C//DTD SVG 1.1//EN" "http://www.w3.org/Graphics/SVG/1.1/DTD/svg11.dtd">

<svg xmlns="http://www.w3.org/2000/svg" xmlns:xlink="http://www.w3.org/1999/xlink" width="200" height="200">

<circle cx="100" cy="100" r="100" fill="#6ECA97"/>

<path id="6" fill="#000000" d="M100,100 m 32.83 17.47 c 0 -19.11 -13.56 -30.21 -30.22 -30.21 c -10.76 0 -17.29 3.9 -20.74 6.94 c 1.29 -20.49 11.82 -30.75 25.86 -30.75 c 5.73 0 10.96 1.29 13.66 2.48 l 3.21 -17.33 c -4.18 -1.04 -9.41 -1.72 -15.17 -1.72 c -32.05 0 -48.35 24.21 -48.35 59.61 c 0 27 9.79 46.23 37.24 46.23 c 20.95 0 34.51 -14.92 34.51 -35.24 m -20.36 2.16 c 0 8.78 -5.05 17.01 -14.89 17.01 c -10.12 0 -15.57 -9.38 -15.57 -19.06 c 0 -3.01 0 -6.92 1.15 -8.65 c 2.01 -3.19 7.08 -5.61 13.28 -5.61 c 9.8 0 16.02 6.77 16.02 16.32"/>

</svg>
